<svg width="153" height="128" viewBox="0 0 153 128" fill="none" xmlns="http://www.w3.org/2000/svg">
<circle cx="64" cy="64" r="64" fill="#115EAE"/>
<circle cx="89" cy="64" r="64" fill="#40C9D9"/>
<path d="M80.92 65.68C81.6667 65.68 82.2267 65.84 82.6 66.16C83 66.4533 83.2 66.88 83.2 67.44C83.2 67.68 83.16 67.9467 83.08 68.24L81.76 72.92C81.4133 74.0667 80.92 74.8667 80.28 75.32C79.6667 75.7733 78.7467 76 77.52 76H58.72C58.16 76 57.7333 75.9067 57.44 75.72C57.12 75.5333 56.96 75.28 56.96 74.96C56.96 74.8 57 74.6267 57.08 74.44C57.16 74.2267 57.2933 74.0533 57.48 73.92C57.6667 73.76 57.8667 73.6133 58.08 73.48C58.5067 73.2133 58.8533 72.9467 59.12 72.68C59.3867 72.3867 59.6133 71.92 59.8 71.28L64.68 54.04C64.7867 53.6933 64.84 53.36 64.84 53.04C64.84 52.7467 64.7867 52.5067 64.68 52.32C64.6 52.1067 64.48 51.8667 64.32 51.6C64.08 51.2533 63.96 50.9733 63.96 50.76C63.96 50.68 63.9867 50.5333 64.04 50.32C64.1467 49.9733 64.3733 49.7333 64.72 49.6C65.0933 49.44 65.6533 49.36 66.4 49.36H75.8C76.36 49.36 76.7867 49.4533 77.08 49.64C77.4 49.8 77.56 50.04 77.56 50.36C77.56 50.4933 77.52 50.6667 77.44 50.88C77.36 51.0667 77.24 51.24 77.08 51.4C76.9467 51.5333 76.8133 51.64 76.68 51.72C76.5733 51.7733 76.4933 51.8267 76.44 51.88C76.0133 52.12 75.6667 52.3867 75.4 52.68C75.1333 52.9733 74.9067 53.4267 74.72 54.04L69.56 72.16H72.04C72.6533 72.16 73.1733 72.0533 73.6 71.84C74.0533 71.6267 74.52 71.2267 75 70.64L77.76 67.36C78.2667 66.7733 78.7467 66.3467 79.2 66.08C79.68 65.8133 80.2533 65.68 80.92 65.68ZM88.8147 67.92C89.8814 67.92 90.7747 68.28 91.4947 69C92.2414 69.72 92.6147 70.6 92.6147 71.64C92.6147 72.36 92.4147 73.0667 92.0147 73.76C91.6414 74.4533 91.108 75.0267 90.4147 75.48C89.748 75.9067 88.988 76.12 88.1347 76.12C87.0947 76.12 86.2147 75.76 85.4947 75.04C84.7747 74.32 84.4014 73.44 84.3747 72.4C84.3747 71.68 84.5614 70.9733 84.9347 70.28C85.308 69.5867 85.828 69.0267 86.4947 68.6C87.188 68.1467 87.9614 67.92 88.8147 67.92ZM110.89 49.12C112.383 49.12 113.756 49.3067 115.01 49.68C116.29 50.0267 117.583 50.5867 118.89 51.36L119.81 50.6C120.45 50.0933 120.97 49.7467 121.37 49.56C121.796 49.3733 122.276 49.28 122.81 49.28C123.45 49.28 123.956 49.4267 124.33 49.72C124.703 49.9867 124.89 50.3867 124.89 50.92C124.89 51.1333 124.85 51.36 124.77 51.6L123.09 57.12C122.903 57.76 122.663 58.2133 122.37 58.48C122.103 58.7467 121.69 58.88 121.13 58.88C120.543 58.88 120.023 58.7067 119.57 58.36C119.143 57.9867 118.463 57.24 117.53 56.12C116.596 55.0533 115.743 54.3067 114.97 53.88C114.223 53.4267 113.45 53.2 112.65 53.2C112.063 53.2 111.57 53.4 111.17 53.8C110.77 54.1733 110.57 54.64 110.57 55.2C110.57 55.84 110.89 56.44 111.53 57C112.17 57.5333 113.17 58.2133 114.53 59.04C115.916 59.8667 117.063 60.6133 117.97 61.28C118.876 61.9467 119.65 62.7733 120.29 63.76C120.93 64.7467 121.25 65.88 121.25 67.16C121.25 67.9867 121.116 68.8133 120.85 69.64C120.21 71.7733 118.97 73.4 117.13 74.52C115.29 75.6133 113.143 76.16 110.69 76.16C108.85 76.16 107.303 75.9467 106.05 75.52C104.796 75.0933 103.516 74.3733 102.21 73.36L100.77 74.56C100.103 75.12 99.5564 75.5067 99.1297 75.72C98.703 75.9067 98.223 76 97.6897 76C97.0764 76 96.583 75.8533 96.2097 75.56C95.863 75.2667 95.6897 74.8667 95.6897 74.36C95.6897 74.0933 95.743 73.8133 95.8497 73.52L97.8097 67.56C98.023 66.8667 98.3164 66.3733 98.6897 66.08C99.063 65.7867 99.543 65.64 100.13 65.64C100.743 65.64 101.29 65.8533 101.77 66.28C102.276 66.7067 102.93 67.48 103.73 68.6C104.583 69.8267 105.37 70.68 106.09 71.16C106.836 71.64 107.716 71.88 108.73 71.88C109.45 71.88 109.996 71.7733 110.37 71.56C110.77 71.32 111.05 70.9467 111.21 70.44C111.263 70.3067 111.29 70.1067 111.29 69.84C111.29 69.2 110.983 68.6133 110.37 68.08C109.756 67.5467 108.81 66.9067 107.53 66.16C106.17 65.3333 105.063 64.6 104.21 63.96C103.356 63.2933 102.61 62.4667 101.97 61.48C101.356 60.4933 101.05 59.3333 101.05 58C101.05 57.0667 101.196 56.1467 101.49 55.24C102.05 53.4 103.196 51.92 104.93 50.8C106.663 49.68 108.65 49.12 110.89 49.12Z" fill="#115EAE"/>
</svg>
